Director: Michael Dowse
Writers: Jay Baruchel (screenplay), Evan Goldberg (screenplay), and 2 more credits »
Genres: Comedy | Sport
Release Date: 6 January 2012(Ireland)See more »
User Rating:  7.5/10 ( votes)
Language: English
Country: USA | Canada
Runtime: 92 min
Storyline: Labeled an outcast by his brainy family, a bouncer overcomes long odds to lead a team of under performing misfits to semi-pro hockey glory, beating the crap out of everything that stands in his way.
Plot Keywords: Bouncer | Team | Misfit | Hockey | One Word Title |  »
Taglines: Meet Doug, The Nicest Guy You'll Ever Fight.
IMDB Link: http://www.imdb.com/title/tt1456635/

Goon.2011.720p.HDRiP.AC3-5.1.x264-SiC

 General Information
 IMDB Link: http://www.imdb.com/title/tt1456635/
 Complete name: Goon.2011.720p.HDRiP.AC3-5.1.x264-SiC.mkv
 Format : Matroska
 Format version : Version 2
 File size: 2.90 GiB
 Duration : 1h 31mn
 Overall bit rate : 4 534 Kbps
 Encoded date : UTC 2012-02-26 16:49:26
 Writing application: mkvmerge v4.0.0 ('The Stars were mine') built on Jun6 2010 16:18:42
 Writing library: libebml v1.0.0 + libmatroska v1.0.0

 Video Information
 ID : 1
 Format : AVC
 Format/Info: Advanced Video Codec
 Format profile : High@L4.1
 Format settings, CABAC : Yes
 Format settings, ReFrames: 1 frame
 Codec ID : V_MPEG4/ISO/AVC
 Duration : 1h 31mn
 Bit rate : 4 200 Kbps
 Width: 1 280 pixels
 Height : 720 pixels
 Display aspect ratio : 16:9
 Frame rate : 23.976 fps
 Color space: YUV
 Chroma subsampling : 4:2:0
 Bit depth: 8 bits
 Scan type: Progressive
 Bits/(Pixel*Frame) : 0.190
 Stream size: 2.60 GiB (90%)
 Writing library: x264 core 68 r1195bm 5d75a9b
 Default: Yes
 Forced : No

Audio Information
 ID : 2
 Format : AC-3
 Format/Info: Audio Coding 3
 Mode extension : CM (complete main)
 Codec ID : A_AC3
 Duration : 1h 31mn
 Bit rate mode: Constant
 Bit rate : 384 Kbps
 Channel(s) : 6 channels
 Channel positions: Front: L C R, Side: L R, LFE
 Sampling rate: 48.0 KHz
 Bit depth: 16 bits
 Compression mode : Lossy
 Stream size: 252 MiB (8%)
 Default: Yes
 Forced : No

Plot
 Labeled an outcast by his brainy family, a bouncer overcomes long odds to lead a team of under performing misfits to semi-pro hockey glory, beating the crap out of everything that stands in his way.